<svg width="125" height="30" viewBox="0 0 125 30" fill="none" xmlns="http://www.w3.org/2000/svg">
<path d="M60.2075 0H64.4436C64.937 0 65.3283 0.387858 65.3283 0.876897V29.0725C65.3283 29.5616 64.937 29.9494 64.4436 29.9494H61.1092C60.3266 29.9494 59.595 29.5447 59.2037 28.8702L49.7788 13.1535L48.1966 10.0169H48.1115C48.2306 11.0961 48.2817 12.1754 48.2817 13.2884V29.0894C48.2817 29.5784 47.8904 29.9663 47.397 29.9663H43.1949C42.7016 29.9663 42.3103 29.5784 42.3103 29.0894V0.876897C42.3103 0.387858 42.7016 0 43.1949 0H47.329C48.1116 0 48.8261 0.404722 49.2344 1.07926L57.8598 15.3794L59.3909 18.2462H59.4759C59.3569 17.285 59.3058 16.2901 59.3058 15.2445V0.876897C59.3058 0.387858 59.7141 0 60.2075 0ZM27.1521 29.9663H31.5583C32.0517 29.9663 32.443 29.5784 32.443 29.0894V0.876897C32.443 0.387858 32.0517 0 31.5583 0H27.1521C26.6587 0 26.2674 0.387858 26.2674 0.876897V29.0725C26.2504 29.5616 26.6587 29.9663 27.1521 29.9663ZM0.884654 29.9663H5.64817C6.14154 29.9663 6.53283 29.5784 6.53283 29.0894L6.56685 17.7403H13.3889C13.8142 17.7403 14.1885 17.4368 14.2565 17.0152L14.937 13.2546C15.0391 12.715 14.6138 12.226 14.0694 12.226H6.53283V5.86847H16.3321C16.7234 5.86847 17.0806 5.59865 17.1827 5.22766L18.3225 1.12985C18.4757 0.573356 18.0503 0.0168634 17.4719 0.0168634H0.884654C0.391289 0 0 0.387858 0 0.876897V29.0725C0 29.5616 0.391289 29.9663 0.884654 29.9663ZM123.903 0.084317C124.311 0.084317 124.583 0.269815 124.685 0.573356C124.77 0.893761 124.821 1.7032 124.821 2.96796C124.821 4.1484 124.634 5.09275 124.226 5.76729L111.602 24.4857H124.175C124.583 24.4857 124.855 24.6712 124.991 24.9747C125.127 25.2951 123.613 29.2243 123.477 29.5447C123.341 29.8651 123.069 30 122.661 30H104.542C104.134 30 103.862 29.8145 103.726 29.511C103.59 29.2074 103.538 28.4317 103.538 27.2007C103.538 25.9696 103.76 25.0253 104.168 24.3508L116.876 5.54806H106.499C106.09 5.54806 105.818 5.36256 105.682 5.05902C105.546 4.73862 104.032 0.809444 104.168 0.489039C104.304 0.168634 104.576 0 104.985 0L123.903 0.084317ZM89.0948 17.6729C88.0571 14.0304 86.9683 10.3879 85.8284 6.74536C84.6886 10.3879 83.5998 14.0304 82.562 17.6729L81.15 22.7993C80.3844 25.9022 79.9251 27.8752 79.7379 28.7352C79.6018 29.2749 79.3296 29.629 78.9213 29.7639C78.513 29.8988 77.5603 29.9831 76.1142 29.9831C74.8043 29.9831 73.9366 29.8988 73.5283 29.7133C73.12 29.5278 72.9839 29.2243 73.12 28.769C73.9877 25.1265 75.3487 20.3204 77.152 14.3845C78.9724 8.44857 80.4695 4.04722 81.6603 1.12985C81.8475 0.674536 82.2047 0.370995 82.7491 0.236088C83.2935 0.10118 84.3313 0.0168634 85.8795 0.0168634C87.4276 0.0168634 88.4654 0.10118 89.0098 0.236088C89.5542 0.370995 89.9114 0.6914 90.0986 1.12985C91.2724 4.04722 92.7695 8.46543 94.5899 14.4014C96.4102 20.3373 97.7712 25.1433 98.6219 28.7858C98.758 29.2411 98.6219 29.5447 98.2136 29.7302C97.8053 29.9157 96.9376 30 95.6277 30H95.5426C94.0965 30 93.1438 29.9157 92.7355 29.7808C92.3272 29.6459 92.055 29.2917 91.9189 28.7521C91.5957 27.1838 91.1023 25.1939 90.4728 22.8162L89.0948 17.6729Z" fill="#0DA193"/>
<path d="M124.668 0.590222C124.583 0.269818 124.311 0.101183 123.886 0.101183L119.258 0.0843201C108.472 10.624 94.9301 18.3137 80.8437 23.9629C80.5885 25.0422 80.3674 25.9359 80.1802 26.6948C93.0077 24.199 105.563 18.8533 116.043 12.2091C116.077 12.1754 116.128 12.1585 116.162 12.1248C116.434 11.9562 116.689 11.7875 116.961 11.6189C117.098 11.5346 117.234 11.4334 117.37 11.3491C117.642 11.1636 117.931 10.9781 118.203 10.7926C118.288 10.742 118.356 10.6914 118.442 10.6408C119.173 10.1518 119.888 9.66274 120.602 9.15683C121.623 8.43171 122.405 7.85835 123.256 7.21754L124.192 5.83474C124.6 5.16021 124.787 4.21586 124.787 3.03542C124.821 1.72007 124.77 0.910627 124.668 0.590222Z" fill="#FFCB05"/>
<path d="M73.6474 26.6442C72.2524 27.1332 70.8403 27.6054 69.4453 28.0607C70.7553 27.9764 72.0652 27.8584 73.3752 27.7066C73.4603 27.3693 73.5624 27.0152 73.6474 26.6442Z" fill="#FFCB05"/>
</svg>
